<?xml version="1.0" standalone="no"?>
<!DOCTYPE svg PUBLIC "-//W3C//DTD SVG 20010904//EN"
 "http://www.w3.org/TR/2001/REC-SVG-20010904/DTD/svg10.dtd">
<svg version="1.0" xmlns="http://www.w3.org/2000/svg"
 width="1067.000000pt" height="1067.000000pt" viewBox="0 0 1067.000000 1067.000000"
 preserveAspectRatio="xMidYMid meet">
<metadata>
Created by potrace 1.14, written by Peter Selinger 2001-2017
</metadata>
<g transform="translate(0.000000,1067.000000) scale(0.100000,-0.100000)"
fill="#000000" stroke="none">
<path d="M5305 10639 c-82 -10 -98 -14 -158 -43 -43 -21 -347 -193 -397 -226
-8 -5 -51 -30 -95 -55 -44 -25 -87 -50 -95 -55 -13 -9 -119 -69 -235 -135 -22
-13 -80 -47 -130 -76 -49 -29 -117 -68 -150 -86 -33 -19 -67 -38 -75 -43 -8
-6 -55 -33 -105 -61 -49 -28 -103 -59 -120 -69 -16 -10 -64 -37 -105 -60 -41
-23 -111 -64 -155 -90 -91 -54 -737 -427 -775 -447 -14 -8 -43 -25 -65 -39
-22 -13 -47 -27 -55 -31 -8 -4 -31 -16 -50 -28 -19 -12 -55 -33 -80 -47 -25
-14 -157 -90 -295 -170 -137 -80 -263 -153 -280 -162 -16 -9 -37 -21 -45 -26
-8 -5 -114 -66 -235 -136 -121 -69 -249 -143 -285 -164 -36 -21 -119 -69 -185
-107 -66 -38 -156 -90 -200 -116 -145 -83 -209 -162 -240 -293 -9 -40 -12
-629 -12 -2540 0 -2302 1 -2494 17 -2550 36 -134 90 -193 268 -297 169 -99
390 -226 427 -246 17 -9 31 -19 33 -23 2 -5 8 -8 12 -8 7 0 309 -171 370 -210
14 -8 95 -55 175 -100 17 -10 70 -41 118 -69 49 -28 91 -51 93 -51 3 0 10 -5
17 -10 21 -18 127 -79 127 -73 0 3 8 -1 18 -9 9 -9 64 -42 122 -75 58 -33 179
-103 270 -155 91 -53 181 -105 200 -115 19 -11 90 -52 157 -92 68 -39 127 -71
133 -71 5 0 10 -4 10 -10 0 -5 4 -10 9 -10 5 0 70 -36 146 -80 76 -44 139 -80
141 -80 2 0 34 -19 71 -41 38 -23 131 -78 208 -122 77 -44 154 -87 170 -97 17
-10 70 -41 118 -69 49 -28 93 -51 98 -51 5 0 9 -3 9 -8 0 -4 15 -13 33 -21 17
-8 34 -17 37 -21 4 -4 203 -119 305 -176 11 -6 44 -25 73 -42 29 -18 57 -32
62 -32 4 0 10 -3 12 -7 3 -7 237 -144 382 -223 112 -62 213 -74 329 -39 32 10
149 70 260 135 111 64 217 125 235 136 18 10 225 129 460 265 235 136 452 260
482 277 30 16 57 32 60 35 3 3 14 11 25 17 65 36 300 170 375 214 63 38 218
127 230 133 8 4 30 16 48 27 29 18 227 132 522 302 47 26 92 53 100 57 33 20
307 178 354 204 28 16 68 39 88 53 21 13 40 24 43 24 2 0 33 17 67 38 35 21
88 52 118 69 30 17 96 54 145 83 50 29 110 64 135 78 25 13 50 28 55 32 6 5
30 19 55 32 25 14 86 48 135 77 118 70 139 81 210 121 168 93 228 143 278 232
57 102 54 -18 52 2668 -1 2339 -2 2478 -19 2535 -39 131 -88 187 -251 282 -91
53 -317 184 -345 199 -19 10 -36 22 -38 27 -2 4 -8 7 -13 7 -5 0 -100 53 -211
118 -112 65 -230 133 -263 151 -33 18 -64 36 -70 41 -9 6 -425 247 -530 305
-22 13 -98 57 -169 99 -70 42 -130 76 -133 76 -3 0 -35 18 -70 40 -35 23 -74
45 -86 51 -12 5 -31 15 -42 22 -122 74 -216 127 -224 127 -6 0 -11 5 -11 10 0
6 -4 10 -9 10 -5 0 -70 36 -145 80 -76 44 -139 80 -142 80 -3 0 -29 15 -57 33
-47 30 -130 78 -377 220 -47 26 -92 52 -100 57 -45 28 -293 170 -296 170 -3 0
-21 11 -42 24 -30 19 -388 226 -542 314 -19 11 -94 54 -166 95 -155 90 -238
117 -329 106z m-385 -1763 l0 -634 -1101 0 -1100 0 58 34 c32 19 65 39 73 44
8 5 80 46 159 92 80 46 165 95 190 110 25 15 57 33 71 41 60 33 391 224 650
375 118 69 229 133 245 142 93 52 131 73 235 134 63 36 122 70 130 76 8 5 62
36 120 69 58 34 139 81 180 105 41 24 78 45 83 45 4 1 7 -284 7 -633z m1069
499 c128 -74 235 -135 237 -135 3 0 23 -12 47 -27 48 -31 64 -41 127 -73 25
-13 47 -27 50 -30 3 -4 30 -20 60 -35 30 -16 62 -34 70 -41 8 -6 38 -24 65
-38 28 -15 57 -31 65 -36 81 -50 224 -130 231 -130 5 0 9 -3 9 -8 0 -4 21 -17
48 -30 26 -13 76 -41 112 -63 36 -22 74 -44 85 -49 11 -6 27 -14 35 -20 24
-15 149 -88 405 -235 132 -76 257 -148 279 -160 l38 -23 -1101 0 -1101 0 0 31
c-4 263 -4 1237 0 1237 3 0 111 -61 239 -135z m-1369 -1964 c0 -3 -16 -32 -35
-64 -19 -32 -35 -59 -35 -61 0 -2 -22 -42 -50 -90 -28 -48 -50 -89 -50 -92 0
-3 -8 -17 -19 -32 -17 -24 -131 -225 -187 -327 -12 -22 -54 -96 -93 -164 -39
-68 -71 -126 -71 -127 0 -2 -13 -25 -29 -52 -31 -52 -39 -67 -161 -282 -46
-80 -93 -164 -106 -187 -13 -23 -62 -111 -110 -195 -215 -379 -253 -446 -279
-493 -16 -27 -53 -93 -83 -145 -31 -52 -60 -105 -66 -117 -6 -13 -13 -23 -16
-23 -3 0 -51 80 -106 178 -56 97 -144 249 -195 337 -50 88 -103 180 -117 205
-14 25 -42 74 -64 109 -21 34 -38 64 -38 66 0 2 -36 64 -80 139 -44 76 -80
141 -80 146 0 6 -4 10 -10 10 -5 0 -10 4 -10 9 0 5 -23 49 -51 98 -28 48 -59
102 -69 118 -9 17 -50 88 -91 158 -41 70 -83 144 -95 165 -11 20 -55 98 -99
172 -43 74 -87 151 -98 170 -11 19 -28 49 -38 65 -11 17 -22 37 -26 45 -4 8
-26 48 -50 88 -24 40 -43 77 -43 81 0 5 -3 11 -7 13 -5 2 -18 22 -31 45 l-22
41 1405 0 c773 0 1405 -3 1405 -7z m3968 -70 c-22 -42 -53 -98 -68 -126 -34
-62 -82 -150 -128 -235 -39 -72 -61 -114 -149 -275 -33 -60 -82 -150 -108
-200 -26 -49 -51 -94 -55 -100 -4 -5 -29 -50 -55 -100 -52 -97 -92 -171 -135
-250 -15 -27 -43 -79 -62 -115 -84 -156 -113 -208 -144 -263 -19 -32 -34 -60
-34 -62 0 -2 -57 -109 -127 -237 -69 -128 -143 -264 -164 -303 -21 -38 -41
-69 -46 -69 -4 1 -23 30 -41 65 -18 35 -73 138 -121 229 -49 91 -108 201 -131
245 -23 44 -57 107 -75 140 -18 33 -54 101 -80 150 -26 50 -60 113 -75 140
-15 28 -44 84 -66 125 -21 41 -41 77 -44 80 -3 3 -17 30 -32 60 -15 30 -51
100 -81 155 -29 55 -75 141 -101 190 -27 50 -65 122 -86 160 -94 175 -115 215
-158 295 -24 47 -63 119 -85 160 -22 41 -57 107 -78 146 l-37 71 1304 1 1304
0 -42 -77z m-3213 -466 c48 -91 93 -175 164 -307 51 -97 108 -203 166 -313 26
-49 96 -180 155 -290 59 -110 135 -254 170 -320 34 -66 71 -133 80 -150 10
-16 41 -75 70 -130 29 -55 65 -122 80 -150 26 -47 52 -96 165 -310 26 -49 60
-112 75 -140 15 -27 44 -83 65 -123 20 -39 41 -75 46 -78 5 -3 7 -9 4 -14 -3
-4 2 -13 10 -20 8 -7 15 -16 15 -20 0 -4 -610 -8 -1355 -8 -745 1 -1355 3
-1355 7 0 3 8 20 18 36 10 17 38 66 62 110 24 44 63 113 87 153 24 41 43 75
43 76 0 2 38 70 85 151 47 82 85 150 85 151 0 2 32 57 70 123 39 66 70 124 70
130 0 6 3 11 8 11 4 0 15 17 25 38 10 20 31 60 48 87 16 28 35 62 40 78 6 15
15 27 20 27 5 0 9 4 9 9 0 5 84 157 187 337 102 181 197 349 211 374 13 25 41
74 62 110 98 170 192 335 234 415 17 32 28 47 30 43 2 -2 24 -43 51 -93z
m3782 -1759 l0 -1545 -36 19 c-20 10 -72 39 -116 65 -44 27 -93 56 -110 65
-16 10 -76 45 -133 79 -57 33 -108 61 -113 61 -5 0 -9 5 -9 10 0 6 -4 10 -9
10 -5 0 -77 41 -160 90 -84 50 -156 90 -161 90 -4 0 -10 4 -12 8 -1 5 -28 22
-58 39 -97 54 -209 120 -222 130 -7 6 -37 23 -66 38 -29 15 -55 31 -58 36 -4
7 70 158 96 194 4 6 33 60 65 120 32 61 67 126 78 145 11 19 42 78 70 130 27
52 59 107 69 123 11 15 16 27 13 27 -3 0 2 12 13 28 17 25 99 175 161 297 14
28 29 52 34 53 4 2 7 7 7 11 0 5 36 74 80 154 44 80 80 149 80 152 0 3 11 22
23 43 13 20 54 96 92 167 37 72 73 137 80 145 6 8 26 44 44 80 17 36 40 79 50
95 10 17 43 77 73 135 31 58 72 134 92 168 20 35 36 68 36 73 0 5 2 9 3 9 2 0
4 -695 4 -1544z m-7454 834 c71 -124 141 -245 155 -270 14 -25 81 -142 150
-260 68 -118 136 -235 150 -260 14 -25 90 -157 168 -293 79 -136 144 -250 144
-253 0 -3 5 -10 10 -17 6 -7 53 -86 105 -177 104 -183 103 -163 15 -212 -25
-14 -90 -52 -145 -85 -111 -66 -386 -228 -425 -250 -14 -8 -43 -25 -65 -38
-22 -14 -71 -43 -110 -65 -38 -22 -77 -45 -85 -50 -8 -6 -64 -39 -125 -75 -60
-35 -116 -69 -122 -75 -10 -9 -13 7 -13 72 -1 168 -1 2594 0 2618 0 21 6 16
31 -30 18 -30 90 -156 162 -280z m4845 -2368 c-28 -54 -59 -110 -68 -127 -9
-16 -38 -70 -65 -120 -26 -49 -56 -103 -65 -120 -10 -16 -37 -66 -60 -110 -24
-44 -57 -105 -73 -135 -16 -30 -59 -109 -95 -175 -35 -66 -78 -145 -95 -175
-17 -30 -45 -80 -61 -112 -17 -31 -44 -80 -60 -110 -16 -29 -60 -111 -99 -183
-79 -147 -117 -218 -157 -290 -15 -27 -45 -81 -65 -120 -198 -367 -258 -475
-264 -475 -4 0 -19 24 -35 53 -15 28 -52 95 -83 147 -30 52 -63 109 -73 126
-10 17 -71 123 -136 235 -64 112 -125 218 -135 234 -10 17 -23 39 -29 50 -5
11 -22 41 -37 68 -75 129 -539 933 -672 1164 -83 145 -151 264 -151 267 0 2
592 4 1315 4 l1315 0 -52 -96z m1247 -171 c16 -9 32 -19 35 -22 3 -3 64 -39
135 -80 72 -40 132 -76 135 -79 3 -3 67 -42 143 -85 76 -44 150 -88 165 -97
15 -10 36 -22 48 -27 18 -8 73 -41 149 -88 11 -7 37 -22 58 -33 20 -11 37 -24
37 -29 0 -8 -49 -39 -135 -86 -11 -6 -96 -56 -190 -110 -380 -220 -504 -291
-580 -334 -44 -24 -81 -48 -83 -53 -2 -4 -8 -8 -13 -8 -8 0 -449 -249 -459
-260 -3 -3 -14 -10 -25 -16 -87 -46 -281 -160 -283 -166 -2 -5 -8 -8 -13 -8
-6 0 -48 -23 -95 -50 -47 -28 -89 -50 -94 -50 -6 0 -10 -4 -10 -8 0 -5 -16
-14 -35 -22 -19 -8 -35 -17 -35 -22 0 -4 -4 -8 -10 -8 -5 0 -33 -14 -62 -31
-29 -18 -69 -41 -88 -52 -19 -10 -55 -31 -79 -45 l-43 -25 42 79 c24 43 49 88
55 99 7 11 33 58 57 105 25 47 73 137 108 200 78 144 105 193 219 405 50 94
96 177 101 185 6 8 19 33 30 55 10 22 26 51 34 65 20 32 151 272 205 375 23
44 50 94 60 110 10 17 35 64 56 105 21 41 45 83 53 93 8 9 12 17 8 17 -4 0 1
12 12 28 10 15 33 55 51 88 l33 62 136 -81 c75 -44 150 -87 167 -96z m-4520
-193 c77 -133 143 -244 147 -246 5 -2 8 -7 8 -12 0 -8 171 -309 351 -617 49
-84 101 -174 116 -200 23 -43 59 -106 225 -391 26 -46 48 -88 48 -93 0 -5 5
-9 10 -9 6 0 10 -6 10 -14 0 -7 7 -19 15 -26 9 -7 13 -15 10 -18 -3 -3 3 -14
12 -25 18 -19 17 -20 -7 -6 -14 8 -32 19 -40 25 -8 6 -40 25 -70 41 -30 17
-116 65 -190 108 -172 100 -554 321 -600 347 -19 11 -64 37 -100 58 -36 21
-81 47 -100 58 -83 47 -476 273 -490 282 -28 17 -125 73 -165 95 -22 12 -102
59 -179 104 -76 44 -139 81 -141 81 -2 0 -32 17 -66 38 -35 21 -76 44 -91 51
-16 8 -28 17 -28 20 0 5 58 40 214 130 63 36 427 251 461 272 17 10 39 23 50
28 11 5 37 21 58 35 21 14 40 26 43 26 3 0 30 16 60 35 30 19 58 35 63 35 4 0
19 8 32 19 13 10 53 34 89 54 l65 35 20 -38 c11 -21 83 -148 160 -282z"/>
</g>
</svg>
